<svg width="41" height="41" viewBox="0 0 41 41" fill="none" xmlns="http://www.w3.org/2000/svg">
<path d="M13.0346 2.50913H13.5346V2.5H28.9745C34.7725 2.5 39.5 7.23462 39.5 13.032V28.968C39.5 34.7656 34.7722 39.5 28.9837 39.5H13.0346C7.23532 39.5 2.5 34.7732 2.5 28.9863V13.0411C2.5 7.24429 7.23613 2.50913 13.0346 2.50913ZM4.42308 13.0492V13.0502V28.9954C4.42308 33.7564 8.25596 37.5868 13.0346 37.5868H28.9837C33.7455 37.5868 37.5769 33.755 37.5769 28.9772V13.0411C37.5769 8.26292 33.7451 4.43151 28.9745 4.43151H13.0346C8.26343 4.43151 4.43277 8.26326 4.42308 13.0492ZM31.7399 9.31507C31.7399 8.77854 32.1645 8.35388 32.7014 8.35388C33.2384 8.35388 33.663 8.77854 33.663 9.31507C33.663 9.8516 33.2384 10.2763 32.7014 10.2763C32.1645 10.2763 31.7399 9.8516 31.7399 9.31507ZM11.2784 21.0046C11.2784 15.6553 15.6582 11.2763 21.0091 11.2763C26.36 11.2763 30.7399 15.6553 30.7399 21.0046C30.7399 26.3539 26.36 30.7329 21.0091 30.7329C15.6582 30.7329 11.2784 26.3539 11.2784 21.0046ZM28.8168 21.0046C28.8168 16.6735 25.3409 13.1986 21.0091 13.1986C16.6773 13.1986 13.2014 16.6735 13.2014 21.0046C13.2014 25.3356 16.6773 28.8105 21.0091 28.8105C25.3409 28.8105 28.8168 25.3356 28.8168 21.0046Z" fill="#070707" stroke="#070707"/>
</svg>
