<svg width="40" height="40" viewBox="0 0 40 40" fill="none" xmlns="http://www.w3.org/2000/svg">
<g clip-path="url(#clip0_1_2)">
<rect width="40" height="40" fill="white"/>
<path d="M4.79102 10.5156H12.0654C13.4873 10.5156 14.723 10.7272 15.7725 11.1504C16.8219 11.5736 17.6302 12.1999 18.1973 13.0293C18.7728 13.8587 19.0605 14.8828 19.0605 16.1016C19.0605 17.1595 18.8955 18.0439 18.5654 18.7549C18.2354 19.4658 17.7741 20.054 17.1816 20.5195C16.5977 20.9766 15.9163 21.3532 15.1377 21.6494L13.6777 22.4746H7.57129L7.5459 19.0342H12.0654C12.6325 19.0342 13.1022 18.9326 13.4746 18.7295C13.847 18.5264 14.1263 18.2386 14.3125 17.8662C14.5072 17.4854 14.6045 17.0326 14.6045 16.5078C14.6045 15.9746 14.5072 15.5176 14.3125 15.1367C14.1178 14.7559 13.8301 14.4639 13.4492 14.2607C13.0768 14.0576 12.6156 13.9561 12.0654 13.9561H9.24707V29H4.79102V10.5156ZM14.9092 29L10.8213 20.8242L15.5439 20.7988L19.6826 28.8096V29H14.9092ZM31.2734 24.0869C31.2734 23.7992 31.2311 23.541 31.1465 23.3125C31.0618 23.0755 30.9053 22.8555 30.6768 22.6523C30.4482 22.4492 30.1182 22.2461 29.6865 22.043C29.2633 21.8314 28.7048 21.6113 28.0107 21.3828C27.1982 21.112 26.4154 20.8073 25.6621 20.4688C24.9089 20.1217 24.236 19.7197 23.6436 19.2627C23.0511 18.7972 22.5814 18.2555 22.2344 17.6377C21.8874 17.0114 21.7139 16.2835 21.7139 15.4541C21.7139 14.6585 21.8916 13.9434 22.2471 13.3086C22.6025 12.6654 23.0977 12.1195 23.7324 11.6709C24.3757 11.2139 25.1289 10.8669 25.9922 10.6299C26.8555 10.3844 27.7992 10.2617 28.8232 10.2617C30.1774 10.2617 31.3708 10.4987 32.4033 10.9727C33.4443 11.4382 34.2568 12.1025 34.8408 12.9658C35.4333 13.8206 35.7295 14.832 35.7295 16H31.2988C31.2988 15.5345 31.2015 15.124 31.0068 14.7686C30.8206 14.4131 30.5371 14.1338 30.1562 13.9307C29.7754 13.7275 29.2972 13.626 28.7217 13.626C28.1631 13.626 27.6934 13.7106 27.3125 13.8799C26.9316 14.0492 26.6439 14.2777 26.4492 14.5654C26.2546 14.8447 26.1572 15.1536 26.1572 15.4922C26.1572 15.7715 26.2334 16.0254 26.3857 16.2539C26.5465 16.474 26.7708 16.6813 27.0586 16.876C27.3548 17.0706 27.7103 17.2568 28.125 17.4346C28.5482 17.6123 29.0221 17.7858 29.5469 17.9551C30.5286 18.2682 31.4004 18.6195 32.1621 19.0088C32.9323 19.3896 33.5798 19.8255 34.1045 20.3164C34.6377 20.7988 35.0397 21.349 35.3105 21.9668C35.5898 22.5846 35.7295 23.2829 35.7295 24.0615C35.7295 24.891 35.5687 25.6273 35.2471 26.2705C34.9255 26.9137 34.4642 27.4596 33.8633 27.9082C33.2624 28.3483 32.543 28.6826 31.7051 28.9111C30.8672 29.1396 29.932 29.2539 28.8994 29.2539C27.9515 29.2539 27.0163 29.1354 26.0938 28.8984C25.1797 28.653 24.3503 28.2806 23.6055 27.7812C22.8607 27.2734 22.264 26.626 21.8154 25.8389C21.3753 25.0433 21.1553 24.0996 21.1553 23.0078H25.624C25.624 23.5495 25.696 24.0065 25.8398 24.3789C25.9837 24.7513 26.1953 25.0518 26.4746 25.2803C26.7539 25.5003 27.0967 25.6611 27.5029 25.7627C27.9092 25.8558 28.3747 25.9023 28.8994 25.9023C29.4665 25.9023 29.9235 25.8219 30.2705 25.6611C30.6175 25.4919 30.8714 25.2718 31.0322 25.001C31.193 24.7217 31.2734 24.417 31.2734 24.0869Z" fill="black"/>
<rect x="1.5" y="1.5" width="37" height="37" rx="4.5" stroke="black" stroke-linejoin="round"/>
</g>
<defs>
<clipPath id="clip0_1_2">
<rect width="40" height="40" fill="white"/>
</clipPath>
</defs>
</svg>
